# xmcd
#
# Track frame offsets:
#	150
#	14300
#	48937
#	83542
#
# Disc length: 1654 seconds
#
# Revision: 3
# Processed by: cddbd v1.5.2PL0 Copyright (c) Steve Scherf et al.
# Submitted via: dBpowerAMP V4.0
#
DISCID=1f067404
DTITLE=Tall Paul vs. INXS - Precious Heart
DYEAR=2001
DGENRE=Dance
TTITLE0=Precious Heart (Riva Edit)
TTITLE1=Precious Heart (Original Mix)
TTITLE2=Precious Heart (Riva Mix)
TTITLE3=Precious Heart (Lush Remix)
EXTD=
EXTT0=
EXTT1=
EXTT2=
EXTT3=
PLAYORDER=
